<?xml version="1.0" encoding="UTF-8" standalone="no"?>
<!-- Created with Inkscape (http://www.inkscape.org/) -->

<svg
   xmlns:dc="http://purl.org/dc/elements/1.1/"
   xmlns:cc="http://creativecommons.org/ns#"
   xmlns:rdf="http://www.w3.org/1999/02/22-rdf-syntax-ns#"
   xmlns:svg="http://www.w3.org/2000/svg"
   xmlns="http://www.w3.org/2000/svg"
   xmlns:sodipodi="http://sodipodi.sourceforge.net/DTD/sodipodi-0.dtd"
   xmlns:inkscape="http://www.inkscape.org/namespaces/inkscape"
   width="102.4"
   height="102.4"
   id="svg6517"
   version="1.1"
   inkscape:version="0.92.1 r15371"
   sodipodi:docname="icon.svg"
   viewBox="0 0 96 96">
  <defs
     id="defs6519">
    <linearGradient
       id="Background">
      <stop
         id="stop4178"
         offset="0"
         style="stop-color:#b8b8b8;stop-opacity:1" />
      <stop
         id="stop4180"
         offset="1"
         style="stop-color:#c9c9c9;stop-opacity:1" />
    </linearGradient>
    <filter
       style="color-interpolation-filters:sRGB"
       inkscape:label="Inner Shadow"
       id="filter1121">
      <feFlood
         flood-opacity="0.59999999999999998"
         flood-color="rgb(0,0,0)"
         result="flood"
         id="feFlood1123" />
      <feComposite
         in="flood"
         in2="SourceGraphic"
         operator="out"
         result="composite1"
         id="feComposite1125" />
      <feGaussianBlur
         in="composite1"
         stdDeviation="1"
         result="blur"
         id="feGaussianBlur1127" />
      <feOffset
         dx="0"
         dy="2"
         result="offset"
         id="feOffset1129" />
      <feComposite
         in="offset"
         in2="SourceGraphic"
         operator="atop"
         result="composite2"
         id="feComposite1131" />
    </filter>
    <filter
       style="color-interpolation-filters:sRGB"
       inkscape:label="Drop Shadow"
       id="filter950">
      <feFlood
         flood-opacity="0.25"
         flood-color="rgb(0,0,0)"
         result="flood"
         id="feFlood952" />
      <feComposite
         in="flood"
         in2="SourceGraphic"
         operator="in"
         result="composite1"
         id="feComposite954" />
      <feGaussianBlur
         in="composite1"
         stdDeviation="1"
         result="blur"
         id="feGaussianBlur956" />
      <feOffset
         dx="0"
         dy="1"
         result="offset"
         id="feOffset958" />
      <feComposite
         in="SourceGraphic"
         in2="offset"
         operator="over"
         result="composite2"
         id="feComposite960" />
    </filter>
    <clipPath
       clipPathUnits="userSpaceOnUse"
       id="clipPath873">
      <g
         transform="matrix(0,-0.66666667,0.66604479,0,-258.25992,677.00001)"
         id="g875"
         inkscape:label="Layer 1"
         style="display:inline;fill:#ff00ff;fill-opacity:1;stroke:none">
        <path
           style="display:inline;fill:#ff00ff;fill-opacity:1;stroke:none"
           d="M 46.702703,898.22775 H 97.297297 C 138.16216,898.22775 144,904.06497 144,944.92583 v 50.73846 c 0,40.86071 -5.83784,46.69791 -46.702703,46.69791 H 46.702703 C 5.8378378,1042.3622 0,1036.525 0,995.66429 v -50.73846 c 0,-40.86086 5.8378378,-46.69808 46.702703,-46.69808 z"
           id="path877"
           inkscape:connector-curvature="0"
           sodipodi:nodetypes="sssssssss" />
      </g>
    </clipPath>
    <filter
       inkscape:collect="always"
       id="filter891"
       inkscape:label="Badge Shadow">
      <feGaussianBlur
         inkscape:collect="always"
         stdDeviation="0.71999962"
         id="feGaussianBlur893" />
    </filter>
    <clipPath
       id="clipPath3037"
       clipPathUnits="userSpaceOnUse">
      <path
         inkscape:connector-curvature="0"
         id="path3039"
         d="M 0,841.89 H 595.28 V 0 H 0 Z" />
    </clipPath>
    <clipPath
       id="clipPath3045"
       clipPathUnits="userSpaceOnUse">
      <path
         inkscape:connector-curvature="0"
         id="path3047"
         d="M 134.923,613.941 H 329.981 V 467.693 H 134.923 Z" />
    </clipPath>
    <clipPath
       id="clipPath3065"
       clipPathUnits="userSpaceOnUse">
      <path
         inkscape:connector-curvature="0"
         id="path3067"
         d="M 219.103,566.654 H 409.278 V 428.639 H 219.103 Z" />
    </clipPath>
    <clipPath
       id="clipPath3105"
       clipPathUnits="userSpaceOnUse">
      <path
         inkscape:connector-curvature="0"
         id="path3107"
         d="M 147.547,581.134 H 337.723 V 443.118 H 147.547 Z" />
    </clipPath>
    <clipPath
       id="clipPath3037-7"
       clipPathUnits="userSpaceOnUse">
      <path
         inkscape:connector-curvature="0"
         id="path3039-4"
         d="M 0,841.89 H 595.28 V 0 H 0 Z" />
    </clipPath>
    <clipPath
       id="clipPath3045-3"
       clipPathUnits="userSpaceOnUse">
      <path
         inkscape:connector-curvature="0"
         id="path3047-7"
         d="M 134.923,613.941 H 329.981 V 467.693 H 134.923 Z" />
    </clipPath>
    <clipPath
       id="clipPath3065-9"
       clipPathUnits="userSpaceOnUse">
      <path
         inkscape:connector-curvature="0"
         id="path3067-8"
         d="M 219.103,566.654 H 409.278 V 428.639 H 219.103 Z" />
    </clipPath>
    <clipPath
       id="clipPath3105-3"
       clipPathUnits="userSpaceOnUse">
      <path
         inkscape:connector-curvature="0"
         id="path3107-6"
         d="M 147.547,581.134 H 337.723 V 443.118 H 147.547 Z" />
    </clipPath>
    <clipPath
       clipPathUnits="userSpaceOnUse"
       id="clipPath3912">
      <circle
         id="circle3914"
         cx="200.24922"
         cy="198.97678"
         r="199.79764"
         style="stroke-width:3.9433744" />
    </clipPath>
  </defs>
  <sodipodi:namedview
     id="base"
     pagecolor="#ffffff"
     bordercolor="#666666"
     borderopacity="1.0"
     inkscape:pageopacity="0.0"
     inkscape:pageshadow="2"
     inkscape:zoom="4.075"
     inkscape:cx="-17.145204"
     inkscape:cy="32.887308"
     inkscape:document-units="px"
     inkscape:current-layer="layer1"
     showgrid="true"
     fit-margin-top="0"
     fit-margin-left="0"
     fit-margin-right="0"
     fit-margin-bottom="0"
     inkscape:window-width="1920"
     inkscape:window-height="1052"
     inkscape:window-x="0"
     inkscape:window-y="0"
     inkscape:window-maximized="1"
     showborder="true"
     showguides="true"
     inkscape:guide-bbox="true"
     inkscape:showpageshadow="false"
     inkscape:snap-to-guides="false"
     inkscape:snap-grids="true">
    <inkscape:grid
       type="xygrid"
       id="grid821"
       originx="0"
       originy="0"
       spacingx="1"
       spacingy="1" />
    <sodipodi:guide
       orientation="1,0"
       position="16,47.999999"
       id="guide823"
       inkscape:locked="false" />
    <sodipodi:guide
       orientation="0,1"
       position="63.999999,79.999999"
       id="guide825"
       inkscape:locked="false" />
    <sodipodi:guide
       orientation="1,0"
       position="79.999999,39.999999"
       id="guide827"
       inkscape:locked="false" />
    <sodipodi:guide
       orientation="0,1"
       position="63.999999,16"
       id="guide829"
       inkscape:locked="false" />
  </sodipodi:namedview>
  <metadata
     id="metadata6522">
    <rdf:RDF>
      <cc:Work
         rdf:about="">
        <dc:format>image/svg+xml</dc:format>
        <dc:type
           rdf:resource="http://purl.org/dc/dcmitype/StillImage" />
        <dc:title></dc:title>
      </cc:Work>
    </rdf:RDF>
  </metadata>
  <g
     inkscape:label="BACKGROUND"
     inkscape:groupmode="layer"
     id="layer1"
     transform="translate(268,-635.29076)"
     style="display:inline">
    <g
       id="svgg"
       transform="matrix(0.2375,0,0,0.2375,-267.72,635.92612)"
       clip-path="url(#clipPath3912)">
      <path
         id="path0"
         d="M 0,200 V 400 H 200 400 V 200 0 H 200 0 V 200 M 172.469,96.487 c 2.088,0.477 4.444,1.607 17.343,8.323 11.099,5.778 12.35,6.39 13.061,6.39 0.646,0 2.904,-1.117 13.327,-6.591 18.661,-9.8 21.241,-10.376 28.587,-6.377 6.784,3.692 8.558,7.892 9.196,21.768 0.933,20.305 1.196,23.408 2.195,25.892 0.51,1.269 1.326,4.108 1.813,6.308 1.137,5.14 3.53,12.843 4.138,13.321 0.259,0.203 1.484,0.483 2.721,0.622 18.862,2.114 35.09,23.691 31.661,42.097 -0.312,1.678 -0.239,2.459 0.412,4.4 3.356,10.008 -0.63,21.072 -9.823,27.264 -2.262,1.523 -2.324,1.962 -0.9,6.388 3.105,9.651 3.164,9.974 3.164,17.308 0,8.329 -0.664,11.209 -4.252,18.441 -11.548,23.28 -43.082,30.526 -56.939,13.082 -1.631,-2.053 -1.804,-2.078 -6.549,-0.969 -2.323,0.542 -5.304,1.225 -6.624,1.516 -3.305,0.73 -19.91,0.728 -23.2,-0.003 -5.859,-1.3 -9.615,-2.175 -10.042,-2.338 -0.253,-0.098 -1.968,1.335 -3.809,3.183 -6.089,6.111 -10.823,8.065 -19.549,8.072 -27.34,0.022 -47.405,-27.991 -38.525,-53.784 0.341,-0.99 0.761,-2.34 0.934,-3 0.173,-0.66 0.977,-3.36 1.787,-6 0.809,-2.64 1.619,-5.34 1.8,-6 0.294,-1.074 1.932,-6.476 4.002,-13.2 3.128,-10.156 3.247,-11.023 2.236,-16.265 -0.747,-3.876 -1.543,-6.17 -3.699,-10.665 -1.746,-3.638 -3.055,-5.857 -8.538,-14.47 -4.819,-7.571 -9.197,-17.202 -9.197,-20.234 0,-0.323 -0.526,-1.168 -1.17,-1.877 -0.643,-0.709 -1.568,-1.739 -2.056,-2.289 -8.644,-9.748 -4.238,-27.87 8.285,-34.075 7.163,-3.55 24.449,-3.868 32.665,-0.601 4.457,1.772 4.378,1.871 4.912,-6.166 0.588,-8.841 1.596,-11.489 5.881,-15.439 4.09,-3.77 9.467,-5.24 14.752,-4.032 m -5.292,10.283 c -4.173,1.303 -5.056,3.699 -5.218,14.169 -0.083,5.34 0.061,5.839 1.69,5.855 0.557,0.005 0.689,-0.85 0.94,-6.094 0.568,-11.904 2.644,-12.734 14.792,-5.91 2.202,1.236 3.819,0.887 3.819,-0.824 0,-2.099 -13.266,-8.056 -16.023,-7.196 m 68.023,-0.031 c -1.032,0.269 -8.385,3.941 -10.722,5.354 -1.45,0.877 -1.611,2.091 -0.379,2.864 0.567,0.355 1.605,-0.036 5.472,-2.059 8.226,-4.306 10.304,-3.175 10.709,5.827 0.281,6.237 1.154,8.003 2.91,5.887 0.779,-0.938 0.552,-10.975 -0.306,-13.517 -1.11,-3.292 -4.469,-5.196 -7.684,-4.356 m -40.4,15.844 c -21.1,3.852 -37.326,21.935 -35.862,39.966 1.577,19.412 50.94,28.66 76.959,14.418 12.03,-6.585 14.746,-12.434 11.5,-24.767 -0.969,-3.682 -3.957,-9.996 -5.394,-11.4 -0.113,-0.11 -1.001,-1.247 -1.974,-2.528 -9.099,-11.973 -28.577,-18.729 -45.229,-15.689 m -75.4,9.256 c -6.431,3.273 -9.336,10.556 -6.53,16.367 2.609,5.402 5.13,5.292 5.13,-0.224 0,-4.1 0.319,-4.382 4.958,-4.382 5.156,0 5.042,-0.13 5.042,5.752 0,5.767 0.254,6.248 3.303,6.248 2.867,0 3.097,-0.444 3.097,-5.98 0,-5.762 0.002,-5.764 4.668,-5.961 4.785,-0.202 5.332,0.216 5.332,4.074 0,4.828 1.862,5.77 4.272,2.163 4.118,-6.161 1.662,-14.648 -5.214,-18.015 l -2.208,-1.081 -9.925,0.01 c -9.834,0.01 -9.943,0.02 -11.925,1.029 m 64.754,4.642 c 6.732,1.966 12.464,10.637 7.741,11.709 -6.18,1.403 -6.535,1.379 -8.646,-0.59 -2.882,-2.688 -6.582,-1.719 -7.701,2.015 -0.577,1.926 -0.799,2.105 -3.348,2.705 -6.576,1.546 -7.91,0.53 -6.458,-4.92 2.251,-8.447 10.377,-13.266 18.412,-10.919 m 46.927,-0.03 c 6.132,2.469 9.727,6.848 10.347,12.603 0.454,4.211 -0.688,4.723 -6.991,3.134 -2.269,-0.572 -2.717,-0.948 -3.08,-2.588 -0.872,-3.944 -5.385,-4.797 -8.161,-1.542 -1.182,1.386 -1.688,1.456 -5.396,0.752 -5.537,-1.052 -5.984,-3.417 -1.555,-8.231 3.501,-3.804 10.68,-5.802 14.836,-4.128 m -19.57,13.772 c 1.247,0.873 1.122,1.702 -0.741,4.933 -1.717,2.979 -1.774,3.773 -0.361,5.052 1.344,1.217 3.203,0.866 4.675,-0.883 l 1.284,-1.525 h 4.048 c 4.69,0 5.441,0.451 4.973,2.981 -1.458,7.875 -11.995,13.021 -18.662,9.115 -2.307,-1.352 -2.538,-1.353 -4.967,-0.024 -2.725,1.491 -8.608,1.584 -11.3,0.179 -4.891,-2.552 -8.91,-9.016 -7.118,-11.446 1.051,-1.425 9.458,-1.262 9.458,0.182 0,1.773 3.673,2.795 5.171,1.439 1.389,-1.256 1.364,-2.061 -0.143,-4.632 -3.244,-5.535 -2.772,-5.994 6.145,-5.994 5.37,0 6.82,0.12 7.538,0.623 M 145,165.097 c -1.262,0.506 -3.626,0.676 -11.2,0.809 -13.457,0.235 -13.235,-0.716 -3.433,14.694 7.225,11.36 10.606,20.312 11.111,29.418 0.257,4.647 0.647,2.932 -4.545,19.982 -0.77,2.53 -1.548,5.14 -1.729,5.8 -0.18,0.66 -0.72,2.46 -1.199,4 -0.479,1.54 -1.198,3.88 -1.596,5.2 -0.399,1.32 -1.28,4.2 -1.958,6.4 -2.833,9.192 -3.07,15.499 -0.814,21.6 1.361,3.681 1.868,4.741 3.531,7.393 12.126,19.332 42.07,17.789 42.028,-2.166 -0.022,-10.285 -6.588,-15.499 -19.932,-15.827 -9.894,-0.243 -9.664,-0.116 -9.664,-5.369 0,-4.777 0.124,-4.87 7.007,-5.239 19.186,-1.027 31.968,9.166 32.509,25.925 0.19,5.879 0.225,5.937 4.107,6.705 9.917,1.961 17.18,2.053 26.577,0.337 2.927,-0.534 6.192,-1.527 6.221,-1.891 0.012,-0.147 0.078,-2.338 0.147,-4.868 0.462,-16.885 12.84,-27.082 31.832,-26.221 7.774,0.352 7.602,0.234 7.594,5.183 -0.009,5.452 0.014,5.438 -9.108,5.438 -8.433,0 -10.932,0.721 -14.914,4.301 -10.884,9.786 -3.535,27.728 11.342,27.692 12.26,-0.029 25.189,-9.118 28.441,-19.993 1.524,-5.095 1.832,-6.904 1.838,-10.8 0.006,-4.232 0.004,-4.246 -2.775,-14.2 -0.184,-0.66 -0.721,-2.415 -1.192,-3.9 l -0.858,-2.7 h -1.546 c -1.883,0 -6.57,-1.542 -8.98,-2.954 -3.183,-1.866 -14.764,-13.255 -17.287,-17.003 -1.619,-2.404 -1.784,-2.453 -2.518,-0.743 -3.921,9.132 -14.606,18.466 -25.437,22.221 -30.986,10.74 -63.77,-16.38 -58.654,-48.521 0.443,-2.785 0.439,-2.808 -0.748,-4.4 -5.727,-7.677 -8.923,-14.596 -9.975,-21.6 -0.832,-5.532 -0.79,-5.402 -1.741,-5.372 -0.485,0.016 -1.602,0.317 -2.482,0.669 m 121.5,12.768 c -0.732,0.295 -0.612,2.205 0.33,5.251 1.247,4.035 1.523,4.443 3.34,4.934 5.002,1.352 8.434,3.329 12.192,7.024 2.906,2.858 3.616,2.53 2.324,-1.074 -2.958,-8.258 -13.822,-17.896 -18.186,-16.135 m -12.8,5.66 c -0.385,0.399 -1.15,1.489 -1.7,2.422 -0.55,0.933 -1.658,2.546 -2.462,3.584 -1.52,1.963 -1.664,2.342 -1.585,4.169 0.064,1.505 0.723,1.366 2.912,-0.613 1.026,-0.928 2.893,-2.223 4.148,-2.878 2.704,-1.412 2.837,-1.665 2.174,-4.123 -0.838,-3.107 -2.08,-4.019 -3.487,-2.561 m 9.663,14.487 c -5.496,1.09 -10.163,6.089 -10.163,10.886 0,3.353 1.229,3.494 4.366,0.502 3.095,-2.952 3.617,-2.91 6.968,0.561 3.36,3.48 3.371,3.381 -0.934,7.839 -4.13,4.277 -4.063,4.085 -2.153,6.199 1.991,2.204 2.441,2.077 6.388,-1.799 4.251,-4.176 4.404,-4.189 7.876,-0.69 3.27,3.295 3.298,3.681 0.489,6.785 -2.816,3.111 -2.831,4.505 -0.048,4.505 6.84,0 13.158,-8.201 11.472,-14.89 -1.545,-6.135 -13.62,-18.367 -19.493,-19.749 -2.581,-0.607 -2.472,-0.604 -4.768,-0.149 m -60.812,14.554 c -2.681,1.186 -3.408,4.354 -1.515,6.603 2.124,2.525 6.703,1.274 7.21,-1.969 0.539,-3.449 -2.6,-6.004 -5.695,-4.634"
         inkscape:connector-curvature="0"
         style="fill:#d5d5d5;fill-rule:evenodd;stroke:none" />
      <path
         id="path1"
         d="m 163.686,97.534 c -7.079,2.52 -10.717,7.958 -11.115,16.616 -0.461,10.013 -0.805,10.676 -4.64,8.934 C 143.372,121.013 143.269,121 131.2,121 c -11.025,0 -11.486,0.031 -14,0.955 -15.24,5.599 -20.017,23.489 -9.611,35.993 1.348,1.62 2.203,3.118 2.59,4.535 1.206,4.419 1.545,5.362 3.127,8.693 1.865,3.928 2.613,5.208 7.81,13.376 8.979,14.108 12.187,23.874 10.103,30.748 -0.451,1.485 -1.159,3.825 -1.575,5.2 -0.415,1.375 -1.422,4.66 -2.237,7.3 -7.874,25.515 -9.007,30.017 -9.007,35.8 0,21.984 16.967,39.605 38.8,40.295 10.32,0.326 15.562,-1.967 22.503,-9.843 1.324,-1.503 1.263,-1.5 6.181,-0.281 10.842,2.689 24.672,2.679 35.225,-0.023 5.264,-1.349 5.113,-1.382 8.089,1.797 16.686,17.824 50.072,6.478 57.964,-19.7 2.956,-9.804 2.613,-16.385 -1.553,-29.762 -1.507,-4.841 -1.524,-4.761 1.466,-6.82 9.356,-6.441 12.926,-17.213 9.028,-27.245 -0.213,-0.548 -0.295,-3.5 -0.187,-6.686 0.386,-11.367 -2.697,-19.732 -10.261,-27.841 -5.305,-5.686 -16.352,-11.091 -22.671,-11.091 -1.601,0 -3.594,-5.244 -5.774,-15.2 -0.265,-1.21 -0.995,-3.64 -1.623,-5.4 -1.212,-3.4 -1.227,-3.608 -2.24,-29.4 -0.524,-13.354 -6.611,-20.058 -17.728,-19.527 l -3.46,0.166 -7.78,3.932 c -4.278,2.163 -8.679,4.424 -9.779,5.024 -1.1,0.601 -4.194,2.222 -6.875,3.602 l -4.875,2.51 -3.725,-1.911 c -2.049,-1.051 -5.345,-2.763 -7.325,-3.805 -1.98,-1.041 -6.902,-3.575 -10.937,-5.63 l -7.338,-3.736 -3.862,-0.122 c -3,-0.094 -4.335,0.046 -5.977,0.631 m 12.381,11.252 c 5.747,2.924 7.533,4.162 7.533,5.219 0,0.881 -1.475,2.395 -2.333,2.395 -1.787,0 -10.391,5.107 -14.834,8.804 -4.575,3.808 -5.256,2.852 -4.848,-6.809 0.318,-7.524 0.558,-8.46 2.679,-10.472 2.826,-2.68 5.178,-2.508 11.803,0.863 m 64.24,-1.716 c 3.054,2.281 3.343,3.069 3.775,10.321 0.546,9.163 -0.299,10.117 -5.356,6.046 -2.924,-2.353 -7.319,-4.906 -11.813,-6.861 -6.17,-2.685 -5.824,-3.493 3.487,-8.154 5.515,-2.761 7.632,-3.05 9.907,-1.352 m -26.97,15.191 c 20.644,3.994 36.935,22.108 35.798,39.802 -0.57,8.861 -12.305,17.421 -28.335,20.666 -6.542,1.325 -8.233,1.471 -17,1.471 -8.741,0 -10.054,-0.112 -17,-1.449 -16.684,-3.211 -28.4,-12.193 -28.4,-21.772 0,-24.875 27.245,-44.076 54.937,-38.718 m -70.369,8.857 c 6.314,2.879 9.768,9.891 7.726,15.683 -2.521,7.15 -6.694,8.061 -6.694,1.461 0,-3.924 -0.288,-4.158 -4.939,-4.021 -4.377,0.129 -4.023,-0.351 -4.261,5.774 -0.229,5.894 -0.48,6.35 -3.518,6.372 -3.113,0.023 -3.682,-1.01 -3.682,-6.689 0,-5.772 0.057,-5.698 -4.349,-5.698 -4.534,0 -4.851,0.291 -4.851,4.453 0,6.399 -4.621,5.013 -6.659,-1.997 -1.966,-6.764 3.037,-14.53 10.338,-16.049 3.781,-0.786 18.721,-0.278 20.889,0.711 m 33.012,5.801 c -5.42,1.539 -9.369,6.461 -9.861,12.29 -0.285,3.379 0.232,3.944 3.006,3.282 1.031,-0.247 2.505,-0.568 3.275,-0.714 1.715,-0.326 2.796,-1.224 2.813,-2.339 0.059,-3.891 5.696,-5 8.877,-1.746 1.1,1.126 1.306,1.185 3.233,0.929 5.803,-0.769 6.682,-1.521 5.209,-4.453 -2.984,-5.939 -10.135,-9.071 -16.552,-7.249 m 47.42,-0.162 c -3.891,1.042 -7.344,3.859 -9.061,7.394 -1.376,2.831 -0.737,3.445 4.482,4.307 l 2.765,0.457 1.798,-1.658 c 3.087,-2.845 7.117,-1.882 8.273,1.977 0.562,1.876 0.787,2.018 4.644,2.932 3.264,0.774 4.474,0.589 4.553,-0.693 0.587,-9.549 -8.412,-17.137 -17.454,-14.716 m -26.346,13.846 c -0.903,0.903 -0.868,1.063 0.99,4.53 2.824,5.268 -1.567,9.261 -5.096,4.634 l -1.043,-1.367 h -3.903 c -4.724,0 -5.188,0.305 -4.431,2.913 2.195,7.56 11.171,11.651 17.916,8.165 2.579,-1.332 2.75,-1.332 5.38,0.012 7.245,3.702 18.456,-2.22 17.855,-9.432 l -0.122,-1.458 -4,-0.12 -4,-0.119 -1.276,1.51 c -1.682,1.991 -4.051,2.16 -5.566,0.398 -1.267,-1.473 -1.213,-2.141 0.408,-5.009 2.842,-5.029 2.844,-5.027 -5.696,-5.186 -5.836,-0.108 -6.851,-0.036 -7.416,0.529 M 148.736,164.3 c 0.2,0.385 0.49,1.78 0.644,3.1 2.22,18.972 17.67,36.144 37.6,41.788 3.287,0.93 3.908,1.85 3.323,4.922 -0.786,4.126 0.418,8.324 3.339,11.643 9.482,10.772 26.94,2.088 24.364,-12.12 -0.572,-3.156 -0.264,-3.547 3.794,-4.812 11.417,-3.559 22.146,-11.542 28.52,-21.221 3.301,-5.012 3.459,-5.185 4.771,-5.194 1.083,-0.007 1.896,1.164 2.574,3.711 0.644,2.421 0.378,2.867 -2.79,4.683 -10.824,6.206 -14.682,18.589 -9.208,29.557 2.596,5.202 15.347,17.87 20.133,20.002 0.66,0.294 1.47,0.666 1.8,0.826 0.33,0.161 1.86,0.517 3.4,0.792 3.842,0.686 3.837,0.682 4.903,4.253 0.52,1.744 1.459,4.88 2.087,6.97 6.081,20.244 -5.593,38.698 -26.308,41.586 -16.641,2.321 -26.475,-17.229 -14.339,-28.505 3.801,-3.531 7.903,-4.675 16.783,-4.679 7.248,-0.003 7.074,0.11 7.074,-4.602 0,-4.953 0.464,-4.738 -9.758,-4.512 -8.77,0.194 -10.571,0.562 -15.467,3.162 -8.451,4.488 -14.249,15.185 -13.32,24.574 0.362,3.657 -0.035,3.9 -8.855,5.43 -8.701,1.51 -25.78,0.336 -28.3,-1.945 -0.577,-0.522 -0.7,-1.33 -0.7,-4.613 0,-9.537 -4.282,-17.505 -12.027,-22.381 -5.458,-3.435 -7.59,-3.954 -17.29,-4.204 -9.696,-0.251 -9.483,-0.347 -9.483,4.262 0,4.851 -0.279,4.697 8.889,4.915 10,0.237 13.635,1.638 17.229,6.64 9.141,12.718 -1.436,28.785 -17.318,26.307 -18.4,-2.87 -31.161,-21.568 -26.232,-38.435 0.386,-1.32 0.849,-2.94 1.029,-3.6 0.181,-0.66 0.812,-2.73 1.403,-4.6 0.591,-1.87 1.238,-3.985 1.437,-4.7 0.2,-0.715 0.526,-1.885 0.726,-2.6 0.199,-0.715 0.844,-2.83 1.433,-4.7 1.523,-4.841 2.617,-8.411 3.003,-9.8 0.183,-0.66 1.011,-3.36 1.84,-6 1.698,-5.411 2.107,-9.374 1.36,-13.193 -2.238,-11.451 -3.561,-14.447 -13.156,-29.807 -7.49,-11.99 -7.744,-11.442 5.439,-11.709 8.994,-0.182 12.122,-0.562 13.158,-1.598 0.552,-0.551 2.131,-0.294 2.496,0.407 m 122.098,13.941 c 1.631,0.792 4.136,2.412 5.566,3.6 2.797,2.324 2.831,2.359 4.61,4.759 0.652,0.88 1.316,1.697 1.475,1.816 0.674,0.502 3.115,6.435 3.115,7.57 0,2.202 -0.991,1.918 -4.323,-1.24 -3.517,-3.333 -6.95,-5.238 -11.077,-6.145 -3.023,-0.664 -6.175,-9.526 -3.979,-11.186 1.091,-0.825 1.285,-0.791 4.613,0.826 M 180.4,191.009 c 13.939,3.796 29.8,3.916 45.282,0.344 11.051,-2.549 6.106,3.925 -6.082,7.964 -13.054,4.327 -27.994,2.995 -39.804,-3.547 -4.003,-2.217 -4.618,-2.989 -3.573,-4.481 0.732,-1.046 1.241,-1.08 4.177,-0.28 m 88.543,6.789 c 3.038,0.922 4.032,1.714 10.882,8.674 7.642,7.764 8.356,8.94 8.341,13.728 -0.017,5.539 -3.245,10.272 -8.281,12.141 -6.232,2.313 -8.426,-0.054 -4.053,-4.373 2.76,-2.725 2.731,-3.204 -0.382,-6.268 -3.222,-3.171 -3.274,-3.165 -7.428,0.9 -4.082,3.995 -4.661,4.141 -6.883,1.733 -2.093,-2.266 -2.04,-2.438 2.059,-6.749 4.292,-4.513 4.231,-4.076 1.02,-7.351 -3.129,-3.191 -3.404,-3.21 -6.364,-0.433 -6.02,5.647 -7.553,-2.318 -1.622,-8.428 3.456,-3.56 8.282,-4.917 12.711,-3.574 M 206.36,212.18 c 3.97,2.052 3.033,8.022 -1.388,8.852 -3.34,0.626 -6.508,-2.984 -5.331,-6.076 1.068,-2.807 4.177,-4.091 6.719,-2.776"
         inkscape:connector-curvature="0"
         style="fill:#231f20;fill-rule:evenodd;stroke:none" />
      <path
         id="path2"
         d="m 164.787,96.597 c -8.487,2.331 -12.187,7.862 -12.951,19.361 -0.534,8.037 -0.455,7.938 -4.912,6.166 -5.356,-2.13 -20.125,-2.901 -27.43,-1.432 -15.546,3.126 -23.628,24.709 -13.52,36.108 0.488,0.55 1.413,1.58 2.056,2.289 0.644,0.709 1.17,1.554 1.17,1.877 0,3.032 4.378,12.663 9.197,20.234 5.483,8.613 6.792,10.832 8.538,14.47 2.156,4.495 2.952,6.789 3.699,10.665 1.011,5.242 0.892,6.109 -2.236,16.265 -2.07,6.724 -3.708,12.126 -4.002,13.2 -0.181,0.66 -0.991,3.36 -1.8,6 -0.81,2.64 -1.614,5.34 -1.787,6 -0.173,0.66 -0.593,2.01 -0.934,3 -8.88,25.793 11.185,53.806 38.525,53.784 8.726,-0.007 13.46,-1.961 19.549,-8.072 1.841,-1.848 3.556,-3.281 3.809,-3.183 0.427,0.163 4.183,1.038 10.042,2.338 3.29,0.731 19.895,0.733 23.2,0.003 1.32,-0.291 4.301,-0.974 6.624,-1.516 4.745,-1.109 4.918,-1.084 6.549,0.969 13.857,17.444 45.391,10.198 56.939,-13.082 3.588,-7.232 4.252,-10.112 4.252,-18.441 0,-7.334 -0.059,-7.657 -3.164,-17.308 -1.424,-4.426 -1.362,-4.865 0.9,-6.388 9.193,-6.192 13.179,-17.256 9.823,-27.264 -0.651,-1.941 -0.724,-2.722 -0.412,-4.4 3.429,-18.406 -12.799,-39.983 -31.661,-42.097 -1.237,-0.139 -2.462,-0.419 -2.721,-0.622 -0.608,-0.478 -3.001,-8.181 -4.138,-13.321 -0.487,-2.2 -1.303,-5.039 -1.813,-6.308 -0.999,-2.484 -1.262,-5.587 -2.195,-25.892 -0.638,-13.876 -2.412,-18.076 -9.196,-21.768 -7.346,-3.999 -9.926,-3.423 -28.587,6.377 -10.423,5.474 -12.681,6.591 -13.327,6.591 -0.711,0 -1.962,-0.612 -13.061,-6.39 -12.899,-6.716 -15.255,-7.846 -17.343,-8.323 -2.592,-0.592 -5.263,-0.554 -7.682,0.11 m 16.076,4.164 c 4.035,2.055 8.957,4.589 10.937,5.63 1.98,1.042 5.276,2.754 7.325,3.805 l 3.725,1.911 4.875,-2.51 c 2.681,-1.38 5.775,-3.001 6.875,-3.602 1.1,-0.6 5.501,-2.861 9.779,-5.024 l 7.78,-3.932 3.46,-0.166 c 3.633,-0.173 7.027,0.51 9.137,1.84 6.112,3.852 8.218,8.189 8.591,17.687 1.013,25.792 1.028,26 2.24,29.4 0.628,1.76 1.358,4.19 1.623,5.4 2.18,9.956 4.173,15.2 5.774,15.2 6.319,0 17.366,5.405 22.671,11.091 7.564,8.109 10.647,16.474 10.261,27.841 -0.108,3.186 -0.026,6.138 0.187,6.686 3.898,10.032 0.328,20.804 -9.028,27.245 -2.99,2.059 -2.973,1.979 -1.466,6.82 3.411,10.954 4.313,18.975 2.824,25.117 -4.947,20.405 -19.897,32.8 -39.561,32.8 -8.708,0 -13.813,-2.194 -19.674,-8.455 -2.976,-3.179 -2.825,-3.146 -8.089,-1.797 -10.553,2.702 -24.383,2.712 -35.225,0.023 -4.918,-1.219 -4.857,-1.222 -6.181,0.281 -6.941,7.876 -12.183,10.169 -22.503,9.843 -21.833,-0.69 -38.8,-18.311 -38.8,-40.295 0,-5.783 1.133,-10.285 9.007,-35.8 0.815,-2.64 1.822,-5.925 2.237,-7.3 0.416,-1.375 1.124,-3.715 1.575,-5.2 2.084,-6.874 -1.124,-16.64 -10.103,-30.748 -5.197,-8.168 -5.945,-9.448 -7.81,-13.376 -1.582,-3.331 -1.921,-4.274 -3.127,-8.693 -0.387,-1.417 -1.242,-2.915 -2.59,-4.535 -10.406,-12.504 -5.629,-30.394 9.611,-35.993 2.514,-0.924 2.975,-0.955 14,-0.955 12.069,0 12.172,0.013 16.731,2.084 3.835,1.742 4.179,1.079 4.64,-8.934 0.514,-11.171 6.855,-17.57 17.092,-17.247 l 3.862,0.122 7.338,3.736 m -14.463,5.666 c -3.619,1.517 -4.462,3.613 -4.815,11.968 -0.333,7.894 -0.095,8.964 1.94,8.729 1.067,-0.123 1.075,-0.147 1.101,-3.425 l 0.026,-3.301 -0.142,3.201 c -0.148,3.325 -0.51,3.822 -2.07,2.834 -0.658,-0.416 -0.668,-8.737 -0.016,-13.378 1.14,-8.113 7.804,-8.277 19.676,-0.485 1.674,1.099 1.253,3.03 -0.66,3.03 -0.574,0 -0.678,0.122 -0.367,0.433 0.614,0.614 2.091,-0.374 2.404,-1.608 0.708,-2.791 -13.559,-9.473 -17.077,-7.998 m 64,1.995 c -5.76,2.884 -7.6,4.127 -7.6,5.136 0,1.368 2.35,2.693 2.977,1.679 0.123,-0.199 -0.137,-0.268 -0.579,-0.152 -2.085,0.545 -2.639,-1.835 -0.698,-3.001 11.328,-6.805 16.332,-7.074 18.384,-0.989 0.858,2.542 1.085,12.579 0.306,13.517 -0.662,0.798 -1.864,0.742 -2.34,-0.109 -0.215,-0.383 -0.525,-0.561 -0.691,-0.396 -0.416,0.416 1.057,1.465 2.079,1.48 2.684,0.041 2.91,-13.047 0.281,-16.295 -3.321,-4.103 -5.368,-4.25 -12.119,-0.87 m -61.967,2.123 c 0.092,0.08 0.968,0.247 1.946,0.373 1.151,0.147 1.575,0.098 1.2,-0.139 -0.534,-0.339 -3.521,-0.56 -3.146,-0.234 m 65.188,0.234 c -0.375,0.237 0.049,0.286 1.2,0.139 0.978,-0.126 1.854,-0.293 1.946,-0.373 0.375,-0.326 -2.612,-0.105 -3.146,0.234 m -68.697,5.821 c 0.002,1.32 0.077,1.812 0.166,1.093 0.089,-0.719 0.087,-1.799 -0.004,-2.4 -0.091,-0.601 -0.164,-0.013 -0.162,1.307 m 75.213,2.8 c 0.002,1.76 0.072,2.43 0.156,1.489 0.085,-0.94 0.084,-2.38 -0.002,-3.2 -0.086,-0.819 -0.155,-0.049 -0.154,1.711 m -41.337,2.197 c -22.295,1.99 -40.4,19.639 -40.4,39.382 0,9.579 11.716,18.561 28.4,21.772 6.946,1.337 8.259,1.449 17,1.449 8.767,0 10.458,-0.146 17,-1.471 16.181,-3.276 27.813,-11.83 28.334,-20.838 0.162,-2.796 -0.854,-9.648 -1.586,-10.701 -0.305,-0.438 -0.351,-0.281 -0.179,0.61 1.769,9.15 1.788,11.094 0.144,14.673 -10.314,22.451 -73.691,23.192 -87.032,1.017 -5.661,-9.408 2.633,-28.591 16.284,-37.667 19.866,-13.207 49.849,-9.202 63.264,8.449 0.973,1.281 1.864,2.418 1.979,2.528 0.819,0.778 2.858,4.545 3.992,7.372 0.523,1.305 1.016,2.18 1.095,1.943 0.079,-0.236 -0.491,-1.801 -1.265,-3.479 -7.715,-16.701 -26.773,-26.848 -47.03,-25.039 m -76.721,8.81 c -7.301,1.519 -12.304,9.285 -10.338,16.049 2.038,7.01 6.659,8.396 6.659,1.997 0,-4.162 0.317,-4.453 4.851,-4.453 4.406,0 4.349,-0.074 4.349,5.698 0,5.679 0.569,6.712 3.682,6.689 3.038,-0.022 3.289,-0.478 3.518,-6.372 0.238,-6.125 -0.116,-5.645 4.261,-5.774 4.651,-0.137 4.939,0.097 4.939,4.021 0,6.6 4.173,5.689 6.694,-1.461 2.042,-5.792 -1.412,-12.804 -7.726,-15.683 -2.168,-0.989 -17.108,-1.497 -20.889,-0.711 m 21.379,1.474 c 6.876,3.367 9.332,11.854 5.214,18.015 -2.41,3.607 -4.272,2.665 -4.272,-2.163 0,-3.858 -0.547,-4.276 -5.332,-4.074 -4.666,0.197 -4.668,0.199 -4.668,5.961 0,5.536 -0.23,5.98 -3.097,5.98 -3.049,0 -3.303,-0.481 -3.303,-6.248 0,-5.882 0.114,-5.752 -5.042,-5.752 -4.639,0 -4.958,0.282 -4.958,4.382 0,5.516 -2.521,5.626 -5.13,0.224 -2.806,-5.811 0.099,-13.094 6.53,-16.367 1.982,-1.009 2.091,-1.019 11.925,-1.029 l 9.925,-0.01 2.208,1.081 m 32.131,4.661 c -8.491,2.755 -14.85,17.671 -7.034,16.495 4.363,-0.656 6.645,-1.462 6.645,-2.348 0,-0.227 -0.315,-0.135 -0.7,0.204 -0.385,0.34 -1.33,0.738 -2.1,0.884 -0.77,0.146 -2.244,0.467 -3.275,0.714 -2.788,0.666 -3.291,0.104 -3.001,-3.352 1.168,-13.939 20.11,-17.504 26.408,-4.971 1.473,2.932 0.594,3.684 -5.209,4.453 -1.927,0.256 -2.133,0.197 -3.233,-0.929 -3.161,-3.234 -8.876,-2.132 -8.862,1.708 0.003,0.585 0.149,0.466 0.544,-0.441 1.414,-3.248 4.792,-3.862 7.477,-1.359 2.111,1.969 2.466,1.993 8.646,0.59 4.723,-1.072 -1.009,-9.743 -7.741,-11.709 -2.023,-0.591 -6.659,-0.558 -8.565,0.061 m 46.288,0.247 c -3.182,1.243 -5.466,3.181 -7.532,6.389 -2.198,3.414 -1.404,4.709 3.455,5.632 3.708,0.704 4.214,0.634 5.396,-0.752 2.795,-3.277 7.348,-2.386 8.152,1.594 0.35,1.732 5.426,4.108 6.494,3.04 0.122,-0.122 -0.828,-0.438 -2.11,-0.702 -3.159,-0.65 -3.516,-0.891 -4.075,-2.756 -1.156,-3.859 -5.186,-4.822 -8.273,-1.977 l -1.798,1.658 -2.765,-0.457 c -5.219,-0.862 -5.858,-1.476 -4.482,-4.307 6.64,-13.667 27.437,-7.911 26.515,7.338 -0.039,0.638 -0.42,0.994 -1.354,1.263 -1.002,0.29 -1.094,0.384 -0.4,0.412 3.917,0.157 2.89,-7.574 -1.682,-12.659 -1.586,-1.764 -3.176,-2.782 -6.337,-4.054 -1.779,-0.717 -6.995,-0.525 -9.204,0.338 m -25.262,13.595 c -0.895,0.989 -0.655,2.023 1.213,5.21 1.507,2.571 1.532,3.376 0.143,4.632 -1.498,1.356 -5.171,0.334 -5.171,-1.439 0,-1.444 -8.407,-1.607 -9.458,-0.182 -1.792,2.43 2.227,8.894 7.118,11.446 2.692,1.405 8.575,1.312 11.3,-0.179 2.429,-1.329 2.66,-1.328 4.967,0.024 6.667,3.906 17.204,-1.24 18.662,-9.115 0.468,-2.53 -0.283,-2.981 -4.973,-2.981 h -4.048 l -1.284,1.525 c -1.472,1.749 -3.331,2.1 -4.675,0.883 -1.413,-1.279 -1.356,-2.073 0.361,-5.052 2.954,-5.123 2.425,-5.556 -6.797,-5.556 -6.095,0 -6.708,0.065 -7.358,0.784 m 14.991,0.416 c 0.478,0.763 0.248,1.474 -1.44,4.46 -1.621,2.868 -1.675,3.536 -0.408,5.009 1.515,1.762 3.884,1.593 5.566,-0.398 l 1.276,-1.51 4,0.119 4,0.12 0.122,1.458 c 0.601,7.212 -10.61,13.134 -17.855,9.432 -2.63,-1.344 -2.801,-1.344 -5.38,-0.012 -6.745,3.486 -15.721,-0.605 -17.916,-8.165 -0.757,-2.608 -0.293,-2.913 4.431,-2.913 h 3.903 l 1.043,1.367 c 3.529,4.627 7.92,0.634 5.096,-4.634 -1.858,-3.467 -1.893,-3.627 -0.99,-4.53 0.924,-0.924 13.961,-0.747 14.552,0.197 m -65.366,13.093 c -1.036,1.036 -4.164,1.416 -13.158,1.598 -13.183,0.267 -12.929,-0.281 -5.439,11.709 9.595,15.36 10.918,18.356 13.156,29.807 0.747,3.819 0.338,7.782 -1.36,13.193 -0.829,2.64 -1.657,5.34 -1.84,6 -0.386,1.389 -1.48,4.959 -3.003,9.8 -0.589,1.87 -1.234,3.985 -1.433,4.7 -0.2,0.715 -0.526,1.885 -0.726,2.6 -0.199,0.715 -0.846,2.83 -1.437,4.7 -0.591,1.87 -1.222,3.94 -1.403,4.6 -0.18,0.66 -0.643,2.28 -1.029,3.6 -3.723,12.741 3.209,28.099 15.832,35.075 14.57,8.053 30.347,1.806 30.998,-12.275 l 0.148,-3.2 -0.3,2.8 c -2.428,22.663 -35.38,20.089 -44.806,-3.5 -3.126,-7.824 -3.124,-13.528 0.011,-23.7 0.678,-2.2 1.559,-5.08 1.958,-6.4 0.398,-1.32 1.117,-3.66 1.596,-5.2 0.479,-1.54 1.019,-3.34 1.199,-4 0.181,-0.66 0.959,-3.27 1.729,-5.8 5.192,-17.05 4.802,-15.335 4.545,-19.982 -0.505,-9.106 -3.886,-18.058 -11.111,-29.418 -9.76,-15.345 -9.874,-14.592 2.213,-14.617 8.257,-0.018 9.7,-0.147 13.507,-1.213 2.362,-0.662 2.245,-0.816 2.948,3.863 0.658,4.378 2.395,9.945 4.233,13.563 1.869,3.678 6.489,10.381 7.422,10.768 0.27,0.112 -0.677,-1.327 -2.104,-3.198 -4.839,-6.341 -8.321,-14.801 -9.206,-22.366 -0.4,-3.424 -1.733,-4.913 -3.14,-3.507 m 119.981,13.522 c -2.196,1.66 0.956,10.522 3.979,11.186 4.127,0.907 7.56,2.812 11.077,6.145 3.332,3.158 4.323,3.442 4.323,1.24 0,-1.135 -2.441,-7.068 -3.115,-7.57 -0.159,-0.119 -0.823,-0.936 -1.475,-1.816 -1.779,-2.4 -1.813,-2.435 -4.61,-4.759 -4.287,-3.561 -8.754,-5.504 -10.179,-4.426 m 4.73,1.393 c 6.509,3.378 11.467,8.861 13.735,15.192 1.292,3.604 0.582,3.932 -2.324,1.074 -3.758,-3.695 -7.19,-5.672 -12.192,-7.024 -1.817,-0.491 -2.093,-0.899 -3.34,-4.934 -1.734,-5.609 -0.624,-6.769 4.121,-4.308 m -17.188,3.898 c -0.419,0.282 -5.791,8.269 -6.117,9.094 -0.316,0.802 3.391,-4.225 4.697,-6.369 2.179,-3.577 3.875,-3.322 4.847,0.727 0.623,2.598 0.628,2.588 -2.215,4.062 -1.253,0.649 -3.379,2.24 -4.726,3.536 -2.38,2.289 -1.862,2.064 0.818,-0.356 0.731,-0.66 2.436,-1.83 3.789,-2.6 3.187,-1.813 3.454,-2.259 2.809,-4.683 -0.87,-3.267 -2.281,-4.501 -3.902,-3.411 m -11.385,14.394 -1.378,1.5 1.5,-1.378 c 1.396,-1.284 1.684,-1.622 1.378,-1.622 -0.066,0 -0.741,0.675 -1.5,1.5 m 19.353,0.862 c -4.173,1.423 -8.536,5.69 -8.529,8.344 0.001,0.382 0.458,-0.206 1.016,-1.306 3.578,-7.053 11.923,-9.269 18.313,-4.864 2.823,1.946 12.791,12.147 13.77,14.09 1.46,2.901 1.913,5.54 1.384,8.061 -0.567,2.706 -0.331,3.31 0.333,0.853 1.441,-5.327 -0.083,-8.428 -8.193,-16.668 -9.124,-9.27 -11.958,-10.603 -18.094,-8.51 m -9.031,9.771 c -1.639,4.003 1.674,5.332 5.154,2.067 2.96,-2.777 3.235,-2.758 6.364,0.433 3.211,3.275 3.272,2.838 -1.02,7.351 -4.099,4.311 -4.152,4.483 -2.059,6.749 2.222,2.408 2.801,2.262 6.883,-1.733 4.154,-4.065 4.206,-4.071 7.428,-0.9 3.113,3.064 3.142,3.543 0.382,6.268 -2.439,2.409 -2.799,3.216 -1.965,4.406 1.852,2.644 10.515,-1.29 12.88,-5.848 0.917,-1.767 0.413,-1.456 -0.972,0.6 -2.61,3.876 -9.462,7.027 -11.295,5.194 -0.835,-0.835 -0.538,-1.53 1.72,-4.025 2.824,-3.121 2.794,-3.527 -0.51,-6.806 -3.482,-3.455 -3.627,-3.442 -7.855,0.711 -3.947,3.876 -4.397,4.003 -6.388,1.799 -1.91,-2.114 -1.977,-1.922 2.153,-6.199 4.305,-4.458 4.294,-4.359 0.934,-7.839 -3.351,-3.471 -3.873,-3.513 -6.968,-0.561 -3.16,3.014 -4.191,2.873 -4.438,-0.608 -0.09,-1.263 -0.216,-1.576 -0.428,-1.059 m -9.766,2.667 c 0,1.65 0.071,2.325 0.157,1.5 0.087,-0.825 0.087,-2.175 0,-3 -0.086,-0.825 -0.157,-0.15 -0.157,1.5 m -24.707,-0.03 c -0.383,0.424 -0.612,1.099 -0.508,1.5 0.174,0.675 0.192,0.672 0.235,-0.039 0.025,-0.422 0.344,-1.097 0.708,-1.5 0.364,-0.402 0.572,-0.731 0.462,-0.731 -0.11,0 -0.514,0.347 -0.897,0.77 m -16.654,2.136 c -2.189,1.476 -2.752,3.554 -1.567,5.788 1.72,3.243 5.154,3.796 7.611,1.225 3.856,-4.035 -1.404,-10.139 -6.044,-7.013 m 4.855,0.401 c 3.59,2.42 1.827,7.749 -2.526,7.635 -3.309,-0.087 -5.121,-4.085 -3.047,-6.721 1.557,-1.979 3.515,-2.3 5.573,-0.914 m -16.735,3.493 c 0,0.77 0.082,1.085 0.183,0.7 0.1,-0.385 0.1,-1.015 0,-1.4 -0.101,-0.385 -0.183,-0.07 -0.183,0.7 m 55.507,4.016 c 0,2.062 14.121,16.78 18.642,19.43 2.41,1.412 7.097,2.954 8.98,2.954 h 1.546 l 0.858,2.7 c 0.471,1.485 1.009,3.24 1.194,3.9 2.054,7.337 2.728,9.448 2.752,8.619 0.015,-0.54 -0.501,-2.7 -1.148,-4.8 -0.647,-2.101 -1.601,-5.245 -2.121,-6.989 -1.066,-3.571 -1.061,-3.567 -4.903,-4.253 -1.54,-0.275 -3.07,-0.631 -3.4,-0.792 -0.33,-0.16 -1.14,-0.532 -1.8,-0.826 -3.808,-1.696 -17.425,-14.69 -19.363,-18.477 -0.976,-1.907 -1.237,-2.217 -1.237,-1.466 m -52.4,4.909 c 0,0.069 0.585,0.654 1.3,1.3 l 1.3,1.175 -1.175,-1.3 c -1.095,-1.212 -1.425,-1.484 -1.425,-1.175 m -43.084,26.64 c -3.746,0.305 -4.086,0.728 -4.103,5.091 -0.021,5.223 -0.242,5.101 9.651,5.344 12.07,0.297 16.182,2.74 19.186,11.4 0.433,1.249 0.704,1.66 0.722,1.096 0.075,-2.409 -3.382,-7.708 -6.486,-9.943 -3.809,-2.742 -5.153,-3.06 -13.797,-3.265 -9.168,-0.218 -8.889,-0.064 -8.889,-4.915 0,-4.609 -0.213,-4.513 9.483,-4.262 9.7,0.25 11.832,0.769 17.29,4.204 7.745,4.876 12.027,12.844 12.027,22.381 0,3.283 0.123,4.091 0.7,4.613 2.52,2.281 19.599,3.455 28.3,1.945 8.82,-1.53 9.217,-1.773 8.855,-5.43 -0.929,-9.389 4.869,-20.086 13.32,-24.574 4.896,-2.6 6.697,-2.968 15.467,-3.162 10.222,-0.226 9.758,-0.441 9.758,4.512 0,4.712 0.174,4.599 -7.074,4.602 -6.795,0.003 -9.622,0.441 -12.737,1.974 -12.541,6.171 -12.544,23.765 -0.006,29.584 17.23,7.998 41.804,-12.652 38.273,-32.16 -0.323,-1.784 -0.368,-1.524 -0.416,2.4 -0.049,4.049 -0.376,5.955 -1.885,11 -3.252,10.875 -16.181,19.964 -28.441,19.993 -14.877,0.036 -22.226,-17.906 -11.342,-27.692 3.982,-3.58 6.481,-4.301 14.914,-4.301 9.122,0 9.099,0.014 9.108,-5.438 0.008,-4.949 0.18,-4.831 -7.594,-5.183 -11.973,-0.543 -19.734,2.356 -25.711,9.602 -4.179,5.066 -5.935,9.835 -6.121,16.619 -0.069,2.53 -0.135,4.721 -0.147,4.868 -0.029,0.364 -3.294,1.357 -6.221,1.891 -9.397,1.716 -16.66,1.624 -26.577,-0.337 -3.882,-0.768 -3.917,-0.826 -4.107,-6.705 -0.572,-17.713 -14.021,-27.497 -35.4,-25.752"
         inkscape:connector-curvature="0"
         style="fill:#7e7c7d;fill-rule:evenodd;stroke:none" />
      <path
         id="path3"
         d="m 166.716,111.959 c -1.428,1.275 -1.811,3.553 -1.884,11.175 l -0.032,3.335 2.5,-1.967 c 3.823,-3.008 5.926,-4.348 10.134,-6.459 2.735,-1.372 3.701,-2.037 3.314,-2.28 -7.138,-4.477 -11.85,-5.754 -14.032,-3.804 m 63.464,0.885 c -2.189,1.124 -4.196,2.218 -4.46,2.432 -0.339,0.274 0.991,1.134 4.51,2.916 2.745,1.39 6.021,3.305 7.28,4.256 2.841,2.145 2.719,2.311 2.546,-3.448 -0.26,-8.722 -2.348,-10.023 -9.876,-6.156 m -53.957,78.445 c -1.045,1.492 -0.43,2.264 3.573,4.481 14.095,7.809 32.029,8.101 46.297,0.755 4.372,-2.251 5.507,-3.138 5.507,-4.305 0,-1.916 -0.839,-2.039 -5.918,-0.867 -15.482,3.572 -31.343,3.452 -45.282,-0.344 -2.936,-0.8 -3.445,-0.766 -4.177,0.28"
         inkscape:connector-curvature="0"
         style="fill:#eb1742;fill-rule:evenodd;stroke:none" />
      <path
         id="path4"
         d="m 244,195.583 c -5.879,5.966 -14.378,11.112 -22.2,13.444 -3.687,1.1 -4.02,1.557 -3.485,4.789 0.806,4.863 -0.56,9.155 -4.028,12.66 -9.803,9.906 -26.566,1.23 -24.268,-12.56 0.565,-3.386 0.695,-3.23 -3.927,-4.722 -9.122,-2.945 -18.09,-8.47 -23.794,-14.658 -2.259,-2.451 -2.457,-1.868 -2.467,7.264 -0.037,33.073 32.67,54.202 63.172,40.809 7.98,-3.504 17.348,-12.555 20.897,-20.192 0.362,-0.779 0.839,-1.54 1.061,-1.691 0.267,-0.182 0.254,-0.585 -0.039,-1.2 -3.271,-6.865 -2.587,-14.847 1.854,-21.65 1.086,-1.664 1.812,-3.082 1.612,-3.151 -0.199,-0.069 -0.407,-0.71 -0.46,-1.425 -0.125,-1.656 0.061,-1.764 -3.928,2.283"
         inkscape:connector-curvature="0"
         style="fill:#34b660;fill-rule:evenodd;stroke:none" />
    </g>
  </g>
  <g
     inkscape:groupmode="layer"
     id="layer3"
     inkscape:label="PLACE YOUR PICTOGRAM HERE"
     style="display:inline" />
  <g
     inkscape:groupmode="layer"
     id="layer2"
     inkscape:label="BADGE"
     style="display:none"
     sodipodi:insensitive="true">
    <g
       style="display:inline"
       transform="translate(-340.00001,-581)"
       id="g4394"
       clip-path="none">
      <g
         id="g855">
        <g
           inkscape:groupmode="maskhelper"
           id="g870"
           clip-path="url(#clipPath873)"
           style="opacity:0.6;filter:url(#filter891)">
          <circle
             transform="matrix(1.4999992,0,0,1.4999992,-29.999795,-237.54282)"
             id="path844"
             style="color:#000000;display:inline;overflow:visible;visibility:visible;fill:#000000;fill-opacity:1;fill-rule:nonzero;stroke:none;stroke-width:4;marker:none;enable-background:accumulate"
             cx="252"
             cy="552.36218"
             r="12" />
        </g>
        <g
           id="g862">
          <circle
             style="color:#000000;display:inline;overflow:visible;visibility:visible;fill:#f5f5f5;fill-opacity:1;fill-rule:nonzero;stroke:none;stroke-width:4;marker:none;enable-background:accumulate"
             id="path4398"
             transform="matrix(1.4999992,0,0,1.4999992,-29.999795,-238.54282)"
             cx="252"
             cy="552.36218"
             r="12" />
          <circle
             transform="matrix(1.25,0,0,1.25,33,-100.45273)"
             id="path4400"
             style="color:#000000;display:inline;overflow:visible;visibility:visible;fill:#dd4814;fill-opacity:1;fill-rule:nonzero;stroke:none;stroke-width:4;marker:none;enable-background:accumulate"
             cx="252"
             cy="552.36218"
             r="12" />
          <path
             sodipodi:type="star"
             style="color:#000000;display:inline;overflow:visible;visibility:visible;fill:#f5f5f5;fill-opacity:1;fill-rule:nonzero;stroke:none;stroke-width:3;marker:none;enable-background:accumulate"
             id="path4459"
             sodipodi:sides="5"
             sodipodi:cx="666.19574"
             sodipodi:cy="589.50385"
             sodipodi:r1="7.2431178"
             sodipodi:r2="4.3458705"
             sodipodi:arg1="1.0471976"
             sodipodi:arg2="1.6755161"
             inkscape:flatsided="false"
             inkscape:rounded="0.1"
             inkscape:randomized="0"
             d="m 669.8173,595.77657 c -0.39132,0.22593 -3.62645,-1.90343 -4.07583,-1.95066 -0.44938,-0.0472 -4.05653,1.36297 -4.39232,1.06062 -0.3358,-0.30235 0.68963,-4.03715 0.59569,-4.47913 -0.0939,-0.44198 -2.5498,-3.43681 -2.36602,-3.8496 0.18379,-0.41279 4.05267,-0.59166 4.44398,-0.81759 0.39132,-0.22593 2.48067,-3.48704 2.93005,-3.4398 0.44938,0.0472 1.81505,3.67147 2.15084,3.97382 0.3358,0.30236 4.08294,1.2817 4.17689,1.72369 0.0939,0.44198 -2.9309,2.86076 -3.11469,3.27355 -0.18379,0.41279 0.0427,4.27917 -0.34859,4.5051 z"
             transform="matrix(1.511423,-0.16366377,0.16366377,1.511423,-755.37346,-191.93651)" />
        </g>
      </g>
    </g>
  </g>
</svg>
